<svg width="14" height="14" viewBox="0 0 14 14" fill="none" xmlns="http://www.w3.org/2000/svg">
<path d="M1.75 3.5H2.91667H12.25" stroke="white" stroke-width="2" stroke-linecap="round" stroke-linejoin="round"/>
<path d="M4.66669 3.5V2.33333C4.66669 2.02391 4.7896 1.72717 5.0084 1.50837C5.22719 1.28958 5.52393 1.16666 5.83335 1.16666H8.16669C8.47611 1.16666 8.77285 1.28958 8.99165 1.50837C9.21044 1.72717 9.33335 2.02391 9.33335 2.33333V3.5M11.0834 3.5V11.6667C11.0834 11.9761 10.9604 12.2728 10.7416 12.4916C10.5229 12.7104 10.2261 12.8333 9.91669 12.8333H4.08335C3.77393 12.8333 3.47719 12.7104 3.2584 12.4916C3.0396 12.2728 2.91669 11.9761 2.91669 11.6667V3.5H11.0834Z" stroke="white" stroke-width="2" stroke-linecap="round" stroke-linejoin="round"/>
<path d="M5.83331 6.41666V9.91666" stroke="white" stroke-width="2" stroke-linecap="round" stroke-linejoin="round"/>
<path d="M8.16669 6.41666V9.91666" stroke="white" stroke-width="2" stroke-linecap="round" stroke-linejoin="round"/>
</svg>
